<svg width="613" height="321" viewBox="0 0 613 321" fill="none" xmlns="http://www.w3.org/2000/svg">
<path fill-rule="evenodd" clip-rule="evenodd" d="M1 53.3416V27.1708C1 19.9439 3.55508 13.7754 8.66524 8.66524C13.7754 3.55508 19.9439 1 27.1708 1H585.481C592.708 1 598.876 3.55508 603.986 8.66524C609.096 13.7754 611.651 19.9439 611.651 27.1708V293.829C611.651 301.056 609.096 307.225 603.986 312.335C598.876 317.445 592.708 320 585.481 320H27.1708C19.9439 320 13.7754 317.445 8.66524 312.335C3.55508 307.225 1 301.056 1 293.829V53.3416Z" stroke="#242424" stroke-dasharray="4 4"/>
<circle cx="307.416" cy="124.526" r="65.4269" fill="url(#paint0_linear_68_2007)"/>
<path d="M205.504 266L216.736 240.62H219.652L231.064 266H227.608L224.476 258.8L225.916 259.664H210.472L212.056 258.8L208.924 266H205.504ZM218.14 244.364L212.524 257.684L211.66 256.928H224.728L224.044 257.684L218.284 244.364H218.14ZM234.278 266V252.32C234.278 251.6 234.254 250.868 234.206 250.124C234.182 249.356 234.122 248.612 234.026 247.892H237.194L237.59 252.428L237.05 252.464C237.29 251.36 237.698 250.448 238.274 249.728C238.874 248.984 239.582 248.444 240.398 248.108C241.238 247.748 242.102 247.568 242.99 247.568C243.374 247.568 243.698 247.58 243.962 247.604C244.226 247.628 244.49 247.688 244.754 247.784L244.682 250.7C244.322 250.556 243.986 250.472 243.674 250.448C243.386 250.4 243.026 250.376 242.594 250.376C241.538 250.376 240.626 250.616 239.858 251.096C239.114 251.576 238.538 252.212 238.13 253.004C237.746 253.796 237.554 254.648 237.554 255.56V266H234.278ZM260.424 273.776V261.86H260.82C260.436 263.228 259.644 264.32 258.444 265.136C257.268 265.928 255.888 266.324 254.304 266.324C252.72 266.324 251.328 265.952 250.128 265.208C248.928 264.464 247.992 263.384 247.32 261.968C246.648 260.552 246.312 258.872 246.312 256.928C246.312 254.984 246.648 253.316 247.32 251.924C247.992 250.508 248.928 249.428 250.128 248.684C251.328 247.94 252.72 247.568 254.304 247.568C255.912 247.568 257.304 247.976 258.48 248.792C259.68 249.584 260.472 250.676 260.856 252.068H260.424L260.82 247.892H263.988C263.916 248.612 263.844 249.332 263.772 250.052C263.724 250.772 263.7 251.48 263.7 252.176V273.776H260.424ZM255.06 263.732C256.692 263.732 258 263.156 258.984 262.004C259.968 260.852 260.46 259.16 260.46 256.928C260.46 254.696 259.968 253.016 258.984 251.888C258 250.76 256.692 250.196 255.06 250.196C253.428 250.196 252.108 250.76 251.1 251.888C250.116 253.016 249.624 254.696 249.624 256.928C249.624 259.16 250.116 260.852 251.1 262.004C252.084 263.156 253.404 263.732 255.06 263.732ZM275.633 266.324C273.449 266.324 271.805 265.736 270.701 264.56C269.621 263.384 269.081 261.572 269.081 259.124V247.892H272.357V259.052C272.357 260.636 272.681 261.8 273.329 262.544C273.977 263.288 274.985 263.66 276.353 263.66C277.841 263.66 279.041 263.168 279.953 262.184C280.889 261.176 281.357 259.844 281.357 258.188V247.892H284.633V266H281.465V262.004H281.933C281.429 263.372 280.625 264.44 279.521 265.208C278.417 265.952 277.121 266.324 275.633 266.324ZM290.142 266V247.892H293.418V266H290.142ZM289.854 243.932V240.404H293.742V243.932H289.854ZM304.224 266L296.484 247.892H300.012L306.312 263.444H305.304L311.712 247.892H315.06L307.284 266H304.224ZM325.477 266.324C323.701 266.324 322.165 265.952 320.869 265.208C319.573 264.44 318.565 263.36 317.845 261.968C317.125 260.552 316.765 258.872 316.765 256.928C316.765 255.008 317.125 253.352 317.845 251.96C318.565 250.544 319.573 249.464 320.869 248.72C322.165 247.952 323.701 247.568 325.477 247.568C327.253 247.568 328.789 247.952 330.085 248.72C331.405 249.464 332.413 250.544 333.109 251.96C333.829 253.352 334.189 255.008 334.189 256.928C334.189 258.872 333.829 260.552 333.109 261.968C332.413 263.36 331.405 264.44 330.085 265.208C328.789 265.952 327.253 266.324 325.477 266.324ZM325.477 263.732C327.109 263.732 328.417 263.156 329.401 262.004C330.385 260.852 330.877 259.16 330.877 256.928C330.877 254.696 330.385 253.016 329.401 251.888C328.417 250.76 327.109 250.196 325.477 250.196C323.821 250.196 322.501 250.76 321.517 251.888C320.557 253.016 320.077 254.696 320.077 256.928C320.077 259.16 320.557 260.852 321.517 262.004C322.501 263.156 323.821 263.732 325.477 263.732ZM337.274 266V262.004H341.27V266H337.274ZM346.216 273.776V252.176C346.216 251.48 346.192 250.772 346.144 250.052C346.096 249.332 346.024 248.612 345.928 247.892H349.096L349.492 252.068H349.096C349.456 250.676 350.224 249.584 351.4 248.792C352.576 247.976 353.98 247.568 355.612 247.568C357.22 247.568 358.624 247.94 359.824 248.684C361.024 249.428 361.948 250.508 362.596 251.924C363.268 253.316 363.604 254.984 363.604 256.928C363.604 258.872 363.268 260.552 362.596 261.968C361.948 263.384 361.024 264.464 359.824 265.208C358.624 265.952 357.22 266.324 355.612 266.324C354.004 266.324 352.612 265.928 351.436 265.136C350.284 264.32 349.504 263.228 349.096 261.86H349.492V273.776H346.216ZM354.856 263.732C356.512 263.732 357.832 263.156 358.816 262.004C359.8 260.852 360.292 259.16 360.292 256.928C360.292 254.696 359.8 253.016 358.816 251.888C357.832 250.76 356.512 250.196 354.856 250.196C353.2 250.196 351.88 250.76 350.896 251.888C349.936 253.016 349.456 254.696 349.456 256.928C349.456 259.16 349.936 260.852 350.896 262.004C351.88 263.156 353.2 263.732 354.856 263.732ZM374.925 266.324C373.341 266.324 371.949 265.952 370.749 265.208C369.549 264.464 368.613 263.384 367.941 261.968C367.269 260.552 366.933 258.872 366.933 256.928C366.933 254.984 367.269 253.316 367.941 251.924C368.613 250.508 369.549 249.428 370.749 248.684C371.949 247.94 373.341 247.568 374.925 247.568C376.509 247.568 377.889 247.964 379.065 248.756C380.265 249.548 381.069 250.64 381.477 252.032H381.045V239.504H384.321V266H381.081V261.788H381.477C381.093 263.204 380.301 264.32 379.101 265.136C377.925 265.928 376.533 266.324 374.925 266.324ZM375.681 263.732C377.313 263.732 378.621 263.156 379.605 262.004C380.613 260.852 381.117 259.16 381.117 256.928C381.117 254.696 380.613 253.016 379.605 251.888C378.621 250.76 377.313 250.196 375.681 250.196C374.049 250.196 372.729 250.76 371.721 251.888C370.737 253.016 370.245 254.696 370.245 256.928C370.245 259.16 370.737 260.852 371.721 262.004C372.729 263.156 374.049 263.732 375.681 263.732ZM390.818 266V250.412H387.29V247.892H391.718L390.818 248.72V245.804C390.818 243.692 391.346 242.096 392.402 241.016C393.458 239.912 394.994 239.36 397.01 239.36C397.49 239.36 397.994 239.396 398.522 239.468C399.074 239.54 399.53 239.66 399.89 239.828V242.492C399.602 242.372 399.242 242.276 398.81 242.204C398.378 242.132 397.958 242.096 397.55 242.096C396.83 242.096 396.206 242.24 395.678 242.528C395.15 242.816 394.754 243.248 394.49 243.824C394.226 244.376 394.094 245.108 394.094 246.02V248.576L393.59 247.892H399.098V250.412H394.094V266H390.818Z" fill="#FCFCFC"/>
<path fill-rule="evenodd" clip-rule="evenodd" d="M304.337 134.865L330.639 108.746C331.636 107.752 333.254 107.751 334.251 108.745C335.249 109.739 335.249 111.35 334.252 112.344L306.141 140.258C305.141 141.247 303.527 141.247 302.528 140.258L289.748 127.552C289.103 126.909 288.851 125.972 289.087 125.094C289.323 124.215 290.012 123.53 290.894 123.295C291.775 123.059 292.716 123.311 293.361 123.954L304.337 134.865Z" fill="white"/>
<defs>
<linearGradient id="paint0_linear_68_2007" x1="307.416" y1="59.0991" x2="307.416" y2="189.953" gradientUnits="userSpaceOnUse">
<stop stop-color="#A100FF"/>
<stop offset="1" stop-color="#610099"/>
</linearGradient>
</defs>
</svg>
